<?xml version="1.0" encoding="UTF-8"?>
<svg width="200px" height="220px" viewBox="0 0 200 220" version="1.1" xmlns="http://www.w3.org/2000/svg" xmlns:xlink="http://www.w3.org/1999/xlink">
    <!-- Generator: Sketch 47.1 (45422) - http://www.bohemiancoding.com/sketch -->
    <title>feature-design-and-code</title>
    <desc>Created with Sketch.</desc>
    <defs>
        <linearGradient x1="0%" y1="0%" x2="101.999998%" y2="100.999999%" id="linearGradient-1">
            <stop stop-color="#438ADC" offset="0%"></stop>
            <stop stop-color="#9160DA" offset="100%"></stop>
        </linearGradient>
        <rect id="path-2" x="15" y="169" width="84" height="26"></rect>
        <path d="M5.99999977,14 C5.99999977,14 3.780757,12.3012618 2.9999999,11 C2.2192428,9.69873817 0.739747615,8.04100945 1,7 C1.26025237,5.95899054 2.2192428,5.63091493 2.99999997,6.41167212 C3.78075719,7.19242921 4.30669849,8.88406944 4.82720333,8.62381703 C5.34770818,8.3635647 4.95732934,5.89116721 4.43682478,4.45977918 C3.91632017,3.0283912 3.37364957,1.74807891e-07 4.43682477,3.01156433e-10 C5.49999997,-9.25366672e-08 5.49999977,1 5.99999977,2.5 C6.49999979,3.99999999 6.1096211,5.99999931 6.49999977,6 C6.89037843,6.00000059 7.03934826,5.65063082 7.03934837,5 C7.0393484,4.82318548 7.07401562,4.67374541 7.14440215,4.54985954 C7.33301949,4.21787805 7.77813669,4.06940091 8.49999977,4.06940079 C9.49124122,4.06940079 8.99999977,6.00000009 9.49999977,6 C9.99999977,6 10.0000002,6.04100937 9.99999977,5 C9.99999939,3.95899063 10.463639,4.06940096 11.463639,4.06940079 C12.463639,4.06940079 11.9794954,5.9999999 12.4999998,6 C13.0205041,6.00000009 12.4999998,5.00000008 12.9999998,5 C13.4999998,5 13.9999992,5.15772862 13.9999998,7.5 C14.0000004,9.84227138 14.2807572,9.95899044 13.4999998,11 C12.7192423,12.0410096 11.9999998,13 11.9999998,13 C11.9999998,13 11.9999998,14 11.463639,14 C10.9272783,14.0000001 10.6506311,12.9999999 9.99999977,13 C9.34936847,13.0000001 8.99999977,14 8.99999977,14 L5.99999977,14 Z M12,12 L12,8 L11,8 L11,12 L12,12 Z M9,11 C9,11.2708838 9.23193359,12 9.5,12 C9.77614237,12 10,11.2754211 10,11 L10,9 C10,8.7291162 9.76806641,8 9.5,8 C9.22385763,8 9,8.72457886 9,9 L9,11 Z M7,11 C7,11.2708838 7.23193359,12 7.5,12 C7.77614237,12 8,11.2754211 8,11 L8,9 C8,8.7291162 7.76806641,8 7.5,8 C7.22385763,8 7,8.72457886 7,9 L7,11 Z" id="path-3"></path>
        <filter x="-34.4%" y="-25.0%" width="168.8%" height="164.3%" filterUnits="objectBoundingBox" id="filter-4">
            <feMorphology radius="1" operator="dilate" in="SourceAlpha" result="shadowSpreadOuter1"></feMorphology>
            <feOffset dx="0" dy="1" in="shadowSpreadOuter1" result="shadowOffsetOuter1"></feOffset>
            <feGaussianBlur stdDeviation="1" in="shadowOffsetOuter1" result="shadowBlurOuter1"></feGaussianBlur>
            <feComposite in="shadowBlurOuter1" in2="SourceAlpha" operator="out" result="shadowBlurOuter1"></feComposite>
            <feColorMatrix values="0 0 0 0 0   0 0 0 0 0   0 0 0 0 0  0 0 0 1 0" type="matrix" in="shadowBlurOuter1"></feColorMatrix>
        </filter>
    </defs>
    <g id="Page-1" stroke="none" stroke-width="1" fill="none" fill-rule="evenodd">
        <g id="Artboard-Copy-6" transform="translate(-840.000000, -1376.000000)">
            <g id="Group-3-Copy" transform="translate(180.000000, 1376.000000)">
                <g id="feature-design-and-code" transform="translate(660.000000, 0.000000)">
                    <rect id="Rectangle-26-Copy" fill="url(#linearGradient-1)" x="0" y="0" width="200" height="220" rx="5"></rect>
                    <text id="Order-now-the-new-ve" font-family="GTWalsheimMedium, GT Walsheim" font-size="16" font-weight="400" line-spacing="24" fill="#FFFFFF">
                        <tspan x="15" y="88">Order now</tspan>
                        <tspan x="15" y="112">the new vehicle</tspan>
                        <tspan x="15" y="136">pass!</tspan>
                    </text>
                    <g id="Rectangle-Copy-9" opacity="0.5">
                        <use fill="#000000" fill-rule="evenodd" xlink:href="#path-2"></use>
                        <rect stroke="#FFFFFF" stroke-width="1" x="15.5" y="169.5" width="83" height="25"></rect>
                    </g>
                    <path d="M5,0 L195,0 L195,0 C197.761424,-5.07265313e-16 200,2.23857625 200,5 L200,55 L0,55 L0,5 L0,5 C-3.38176876e-16,2.23857625 2.23857625,5.07265313e-16 5,0 Z" id="Rectangle-27" fill="#000000" opacity="0.200000003"></path>
                    <text id="Special-offer" font-family="GTWalsheimMedium, GT Walsheim" font-size="16" font-weight="400" line-spacing="24" fill="#FFFFFF">
                        <tspan x="15" y="34">Special offer</tspan>
                    </text>
                    <text id="ORDER-NOW" font-family="GTWalsheimMedium, GT Walsheim" font-size="10" font-weight="400" fill="#FFFFFF">
                        <tspan x="27" y="185">ORDER NOW</tspan>
                    </text>
                    <g id="Pointer" transform="translate(80.000000, 183.000000)">
                        <g>
                            <use fill="black" fill-opacity="1" filter="url(#filter-4)" xlink:href="#path-3"></use>
                            <use fill="#FFFFFF" fill-rule="evenodd" xlink:href="#path-3"></use>
                            <path stroke="#000000" stroke-width="1" d="M4.57605264,7.86886829 C4.57241731,7.66457317 4.5650967,7.37326956 4.52581728,7.03939464 C4.43304259,6.25081004 4.21475604,5.31217786 3.96692806,4.63065068 C3.66718322,3.80635221 3.41092929,2.64931273 3.34425269,1.72925958 C3.24727325,0.391065577 3.51057107,-0.499999848 4.43682473,-0.5 C5.36321899,-0.500000081 5.76979273,-0.0142192182 6.1012711,1.08624342 C6.07149731,0.987398516 6.36793341,2.02266209 6.47434141,2.34188611 C6.57905679,2.65603222 6.65272028,2.99864222 6.70224378,3.37472107 C6.7390196,3.65399474 6.7594096,3.89031331 6.77303639,4.2025009 C7.08842116,3.75182727 7.66614661,3.56940093 8.49999977,3.56940079 C9.08903749,3.56940079 9.39871002,3.87344846 9.56379458,4.40706062 C9.6413897,4.10593831 9.79424359,3.88692891 10.0464402,3.74131922 C10.3299025,3.57765775 10.5352739,3.56045628 11.2187362,3.56773854 C11.3386214,3.56899267 11.3923139,3.5694008 11.463639,3.56940079 C12.1273974,3.56940079 12.4389193,3.95190243 12.5929548,4.61662629 C12.7060508,4.54192954 12.844071,4.50000003 12.9999998,4.5 C14.0584447,4.5 14.4999992,5.28235494 14.4999998,7.49999987 C14.4999999,7.9125726 14.5080173,8.26047668 14.5242075,8.68754329 C14.5682665,9.84974276 14.5645332,9.99797054 14.4181946,10.4100702 C14.3205201,10.6851285 14.1648512,10.9468649 13.8999997,11.3000001 C12.8666405,12.6778121 12.7696644,12.8071137 12.4929846,13.1760202 C12.482533,13.3113719 12.45928,13.4677182 12.4158897,13.6295137 C12.2802785,14.135185 11.9867699,14.5 11.4636391,14.5 C11.0829613,14.5000001 10.8351288,14.3231063 10.5176899,13.9659274 C10.4868562,13.9312336 10.4553429,13.8949899 10.3974761,13.8282135 C10.1764962,13.5742554 10.0768463,13.5 9.99999984,13.5 C9.91823665,13.5 9.79792217,13.5907818 9.67049804,13.7796466 C9.57207922,13.9255204 9.50274735,14.0769638 9.47202178,14.1649097 L9.35495172,14.5 L5.83060076,14.5 L5.6960862,14.3970347 C5.58906305,14.3151129 5.4053218,14.1694172 5.17017151,13.9743411 C4.77869498,13.6495797 4.38709033,13.3046237 4.02025764,12.9532621 C3.71263719,12.6586155 3.43572793,12.3718986 3.19673993,12.0965327 C2.93929299,11.799898 2.72894075,11.5200601 2.57125343,11.2572479 C2.39853209,10.969379 2.31312586,10.8424581 1.80218034,10.099907 C1.70749107,9.96229626 1.63555195,9.85699149 1.56608579,9.7539705 C0.678335947,8.43740331 0.323409215,7.64481027 0.514928753,6.87873219 C0.87165661,5.45182076 2.30373784,5.00830319 3.35355334,6.0581187 C3.60674637,6.31131169 3.82804519,6.62418288 4.10439053,7.08368642 C4.16760755,7.18880288 4.37918524,7.54952018 4.42006044,7.61778007 C4.47918337,7.71651294 4.53021317,7.79883171 4.57605264,7.86886829 Z M9.5,11 C9.5,11.0668258 9.54601018,11.2556897 9.60992198,11.4066746 C9.64137091,11.4809694 9.67329287,11.537784 9.69562967,11.5650611 C9.6730237,11.5374553 9.61446527,11.5 9.5,11.5 C9.39035557,11.5 9.33191764,11.5365374 9.30953113,11.5635695 C9.33095671,11.5376978 9.36196782,11.4825576 9.39251792,11.4097725 C9.45523277,11.2603554 9.5,11.0716349 9.5,11 L9.5,9 C9.5,8.93317417 9.45398982,8.74431031 9.39007802,8.59332539 C9.35862909,8.5190306 9.32670713,8.46221599 9.30437033,8.43493891 C9.3269763,8.46254468 9.38553473,8.5 9.5,8.5 C9.60964443,8.5 9.66808236,8.46346258 9.69046887,8.43643047 C9.66904329,8.46230224 9.63803218,8.5174424 9.60748208,8.59022753 C9.54476723,8.73964463 9.5,8.92836514 9.5,9 L9.5,11 Z M7.5,11 L7.5,9 C7.5,8.92836514 7.54476723,8.73964463 7.60748208,8.59022753 C7.63803218,8.5174424 7.66904329,8.46230224 7.69046887,8.43643047 C7.66808236,8.46346258 7.60964443,8.5 7.5,8.5 C7.38553473,8.5 7.3269763,8.46254468 7.30437033,8.43493891 C7.32670713,8.46221599 7.35862909,8.5190306 7.39007802,8.59332539 C7.45398982,8.74431031 7.5,8.93317417 7.5,9 L7.5,11 C7.5,11.0716349 7.45523277,11.2603554 7.39251792,11.4097725 C7.36196782,11.4825576 7.33095671,11.5376978 7.30953113,11.5635695 C7.33191764,11.5365374 7.39035557,11.5 7.5,11.5 C7.61446527,11.5 7.6730237,11.5374553 7.69562967,11.5650611 C7.67329287,11.537784 7.64137091,11.4809694 7.60992198,11.4066746 C7.54601018,11.2556897 7.5,11.0668258 7.5,11 Z"></path>
                        </g>
                    </g>
                </g>
            </g>
        </g>
    </g>
</svg>